<svg width="60" height="60" viewBox="0 0 60 60" xmlns="http://www.w3.org/2000/svg">
  <!-- Background with gradient -->
  <defs>
    <linearGradient id="bgGradient" x1="0%" y1="0%" x2="100%" y2="100%">
      <stop offset="0%" style="stop-color:#3b82f6;stop-opacity:1" />
      <stop offset="100%" style="stop-color:#1d4ed8;stop-opacity:1" />
    </linearGradient>
  </defs>
  
  <!-- Background -->
  <rect width="60" height="60" rx="8" fill="url(#bgGradient)"/>
  
  <!-- Gate structure - geometric design -->
  <g transform="translate(30, 30)">
    <!-- Left pillar -->
    <rect x="-24" y="-20" width="8" height="40" fill="#ffffff"/>
    <rect x="-22" y="-18" width="4" height="36" fill="#3b82f6"/>
    
    <!-- Right pillar -->
    <rect x="16" y="-20" width="8" height="40" fill="#ffffff"/>
    <rect x="18" y="-18" width="4" height="36" fill="#3b82f6"/>
    
    <!-- Top beam -->
    <rect x="-24" y="-20" width="48" height="8" fill="#ffffff"/>
    <rect x="-22" y="-18" width="44" height="4" fill="#3b82f6"/>
    
    <!-- Left gate panel -->
    <rect x="-20" y="-16" width="18" height="32" fill="#f59e0b"/>
    <rect x="-18" y="-14" width="14" height="28" fill="#ffffff" opacity="0.15"/>
    
    <!-- Right gate panel -->
    <rect x="2" y="-16" width="18" height="32" fill="#f59e0b"/>
    <rect x="4" y="-14" width="14" height="28" fill="#ffffff" opacity="0.15"/>
    
    <!-- Gate details - geometric pattern -->
    <rect x="-16" y="-12" width="10" height="2" fill="#3b82f6" opacity="0.4"/>
    <rect x="-16" y="-8" width="10" height="2" fill="#3b82f6" opacity="0.4"/>
    <rect x="-16" y="-4" width="10" height="2" fill="#3b82f6" opacity="0.4"/>
    <rect x="-16" y="0" width="10" height="2" fill="#3b82f6" opacity="0.4"/>
    <rect x="-16" y="4" width="10" height="2" fill="#3b82f6" opacity="0.4"/>
    <rect x="-16" y="8" width="10" height="2" fill="#3b82f6" opacity="0.4"/>
    <rect x="-16" y="12" width="10" height="2" fill="#3b82f6" opacity="0.4"/>
    
    <rect x="6" y="-12" width="10" height="2" fill="#3b82f6" opacity="0.4"/>
    <rect x="6" y="-8" width="10" height="2" fill="#3b82f6" opacity="0.4"/>
    <rect x="6" y="-4" width="10" height="2" fill="#3b82f6" opacity="0.4"/>
    <rect x="6" y="0" width="10" height="2" fill="#3b82f6" opacity="0.4"/>
    <rect x="6" y="4" width="10" height="2" fill="#3b82f6" opacity="0.4"/>
    <rect x="6" y="8" width="10" height="2" fill="#3b82f6" opacity="0.4"/>
    <rect x="6" y="12" width="10" height="2" fill="#3b82f6" opacity="0.4"/>
    
    <!-- Center lock - geometric -->
    <rect x="-2" y="-2" width="4" height="4" fill="#ffffff"/>
    <rect x="-1" y="-1" width="2" height="2" fill="#3b82f6"/>
    
    <!-- Hinges - geometric -->
    <rect x="-21" y="-6" width="2" height="2" fill="#ffffff"/>
    <rect x="-21" y="4" width="2" height="2" fill="#ffffff"/>
    <rect x="19" y="-6" width="2" height="2" fill="#ffffff"/>
    <rect x="19" y="4" width="2" height="2" fill="#ffffff"/>
  </g>
  
  <!-- Subtle border -->
  <rect width="60" height="60" rx="8" fill="none" stroke="#ffffff" stroke-width="1" opacity="0.2"/>
</svg> 